<?xml version="1.0" encoding="utf-8"?>
<!-- Generator: Adobe Illustrator 16.0.0, SVG Export Plug-In . SVG Version: 6.00 Build 0)  -->
<!DOCTYPE svg PUBLIC "-//W3C//DTD SVG 1.1//EN" "http://www.w3.org/Graphics/SVG/1.1/DTD/svg11.dtd">
<svg version="1.1" id="Grid" xmlns="http://www.w3.org/2000/svg" xmlns:xlink="http://www.w3.org/1999/xlink" x="0px" y="0px"
	 width="1680px" height="1309.987px" viewBox="0 0 1680 1309.987" enable-background="new 0 0 1680 1309.987" xml:space="preserve">
<g>
	<defs>
		<rect id="SVGID_1_" x="140" y="160.479" width="450.188" height="364.198"/>
	</defs>
	<clipPath id="SVGID_2_">
		<use xlink:href="#SVGID_1_"  overflow="visible"/>
	</clipPath>
	<g clip-path="url(#SVGID_2_)">
		<defs>
			<rect id="SVGID_3_" x="19.011" y="161.621" width="571.177" height="363.056"/>
		</defs>
		<clipPath id="SVGID_4_">
			<use xlink:href="#SVGID_3_"  overflow="visible"/>
		</clipPath>
		<g transform="matrix(1 0 0 1 1.907349e-006 1.525879e-005)" clip-path="url(#SVGID_4_)">
			
				<image overflow="visible" width="1729" height="1099" xlink:href="36A7D85C.jpg"  transform="matrix(0.3304 0 0 0.3304 19.0107 161.6211)">
			</image>
		</g>
	</g>
</g>
<text transform="matrix(1 0 0 1 156.8828 620.0918)"><tspan x="0" y="0" fill="#565656" font-family="'MyriadPro-Regular'" font-size="39.3913">Wohin führt der Weg</tspan><tspan x="0" y="47.27" fill="#565656" font-family="'MyriadPro-Regular'" font-size="39.3913">von Europa </tspan></text>
<rect x="142.814" y="726.426" fill="#D25300" width="450.186" height="16.319"/>
<rect x="613.907" y="1252.089" fill="#8E44AD" width="450.187" height="16.319"/>
<text transform="matrix(1 0 0 1 627.9766 564.9395)" fill="#565656" font-family="'MyriadPro-Regular'" font-size="39.3913">Wirklich ein Geschenk </text>
<rect x="613.908" y="626.952" fill="#C0392B" width="450.186" height="16.319"/>
<rect x="1087.453" y="673.328" fill="#27AE60" width="450.188" height="16.319"/>
<rect x="142.365" y="1252.408" fill="#27AE60" width="450.188" height="16.319"/>
<rect x="1087.453" y="880.699" fill="#0FB9B1" width="450.188" height="16.319"/>
<rect x="1087.453" y="1123.373" fill="#0FB9B1" width="450.188" height="16.319"/>
<image overflow="visible" width="6000" height="4000" xlink:href="36A7D85D.jpg"  transform="matrix(0.0757 0 0 0.0757 613 160.3218)">
</image>
<text transform="matrix(1 0 0 1 627.9766 497.7803)" fill="#555555" font-family="'MyriadPro-Regular'" font-size="18">Menschen in der Pfennigparade | 06.09.19</text>
<text transform="matrix(1 0 0 1 1106.5762 447.3672)" fill="#555555" font-family="'MyriadPro-Regular'" font-size="18">Freizeit | 06.09.19</text>
<text transform="matrix(1 0 0 1 156.8828 1082.3672)" fill="#555555" font-family="'MyriadPro-Regular'" font-size="18">Freizeit | 06.09.19</text>
<text transform="matrix(1 0 0 1 1106.5762 755.4258)" fill="#555555" font-family="'MyriadPro-Regular'" font-size="18">Kurzgeschichten | 06.09.19</text>
<text transform="matrix(1 0 0 1 1106.5762 948.4258)" fill="#555555" font-family="'MyriadPro-Regular'" font-size="18">Kurzgeschichten | 06.09.19</text>
<text transform="matrix(1 0 0 1 156.8828 558.7969)" fill="#555555" font-family="'MyriadPro-Regular'" font-size="18">Gesellschaft | 06.09.19</text>
<text transform="matrix(1 0 0 1 156.8828 695.4258)" fill="#555555" font-family="'MyriadPro-Regular'" font-size="18">von Hans Mustermann</text>
<text transform="matrix(1 0 0 1 1106.5762 639.4258)" fill="#555555" font-family="'MyriadPro-Regular'" font-size="18">von Hans Mustermann</text>
<text transform="matrix(1 0 0 1 634.7676 594.4258)" fill="#555555" font-family="'MyriadPro-Regular'" font-size="18">von Hans Mustermann</text>
<text transform="matrix(1 0 0 1 156.8828 1220.4258)" fill="#555555" font-family="'MyriadPro-Regular'" font-size="18">von Hans Mustermann</text>
<text transform="matrix(1 0 0 1 634.7676 1227.4258)" fill="#555555" font-family="'MyriadPro-Regular'" font-size="18">von Hans Mustermann</text>
<text transform="matrix(1 0 0 1 1106.5762 853.4258)" fill="#555555" font-family="'MyriadPro-Regular'" font-size="18">von Hans Mustermann</text>
<text transform="matrix(1 0 0 1 1106.5762 1096.4258)" fill="#555555" font-family="'MyriadPro-Regular'" font-size="18">von Hans Mustermann</text>
<text transform="matrix(1 0 0 1 634.7676 1091.7051)" fill="#555555" font-family="'MyriadPro-Regular'" font-size="18">Pfennigparade WKM | 06.09.19</text>
<image overflow="visible" width="1920" height="1080" xlink:href="36A7D852.jpg"  transform="matrix(0.2349 0 0 0.2349 1086 162.2656)">
</image>
<text transform="matrix(1 0 0 1 1106.5771 511.5879)"><tspan x="0" y="0" fill="#565656" font-family="'MyriadPro-Regular'" font-size="39.3913">King Crimson in </tspan><tspan x="0" y="47.27" fill="#565656" font-family="'MyriadPro-Regular'" font-size="39.3913">der Philharmonie </tspan><tspan x="0" y="94.539" fill="#565656" font-family="'MyriadPro-Regular'" font-size="39.3913">im Gasteig</tspan></text>
<image overflow="visible" width="1038" height="779" xlink:href="36A7D853.jpg"  transform="matrix(0.4364 0 0 0.4364 613 709.6475)">
</image>
<text transform="matrix(1 0 0 1 630.5479 1153.6885)"><tspan x="0" y="0" fill="#565656" font-family="'MyriadPro-Regular'" font-size="39.3913">Eröffnung </tspan><tspan x="0" y="47.27" fill="#565656" font-family="'MyriadPro-Regular'" font-size="39.3913">Beans and Books</tspan></text>
<text transform="matrix(1 0 0 1 1106.5762 824.1396)"><tspan x="0" y="0" fill="#565656" font-family="'MyriadPro-Regular'" font-size="39.3913">Freibrief Behinderung</tspan><tspan x="359.559" y="0" fill="#565656" font-family="'MyriadPro-Regular'" font-size="21"> </tspan></text>
<image overflow="visible" width="3641" height="1977" xlink:href="36A7D854.jpg"  transform="matrix(0.1234 0 0 0.1234 142.8145 797.5762)">
</image>
<text transform="matrix(1 0 0 1 156.8828 1147.0586)"><tspan x="0" y="0" fill="#565656" font-family="'MyriadPro-Regular'" font-size="39.3913">Yoga-Kurs in der </tspan><tspan x="0" y="47.27" fill="#565656" font-family="'MyriadPro-Regular'" font-size="39.3913">Barlachstraße</tspan></text>
<text transform="matrix(1 0 0 1 1106.5762 1018)"><tspan x="0" y="0" fill="#565656" font-family="'MyriadPro-Regular'" font-size="39.3913">Meine </tspan><tspan x="0" y="47.27" fill="#565656" font-family="'MyriadPro-Regular'" font-size="39.3913">Donaukreuzfahrt 2018</tspan></text>
<g>
	<path fill="#D43900" d="M850,94.693c0,2.367-1.918,4.286-4.285,4.286h-51.429c-2.367,0-4.286-1.919-4.286-4.286V43.265
		c0-2.367,1.919-4.286,4.286-4.286h51.429c2.367,0,4.285,1.919,4.285,4.286V94.693z"/>
	<path fill="#FFFFFF" d="M840.51,86.272l-9.86-9.862c-0.187-0.187-0.431-0.284-0.69-0.284h-1.072
		c2.559-2.965,4.11-6.824,4.11-11.048c0-9.333-7.563-16.896-16.896-16.896c-9.334,0-16.896,7.563-16.896,16.896
		c0,9.334,7.563,16.897,16.896,16.897c4.224,0,8.082-1.552,11.048-4.11v1.072c0,0.26,0.105,0.504,0.284,0.69l9.862,9.862
		c0.381,0.382,0.998,0.382,1.381,0l1.834-1.835C840.893,87.272,840.893,86.654,840.51,86.272z M816.101,78.076
		c-7.182,0-12.998-5.816-12.998-12.998s5.816-12.998,12.998-12.998c7.181,0,12.997,5.816,12.997,12.998
		S823.281,78.076,816.101,78.076z"/>
</g>
<rect x="1078.308" fill="#EEEEEE" width="601.692" height="1309.987"/>
<g>
	<text transform="matrix(1 0 0 1 1120.3301 190.2456)"><tspan x="0" y="0" fill="#222222" font-family="'MyriadPro-Regular'" font-size="30">Gesellschaft</tspan><tspan x="0" y="61" fill="#222222" font-family="'MyriadPro-Regular'" font-size="30">Freizeit</tspan><tspan x="0" y="122" fill="#222222" font-family="'MyriadPro-Regular'" font-size="30">Handicap-Hacks</tspan><tspan x="0" y="183" fill="#222222" font-family="'MyriadPro-Regular'" font-size="30">Pfennigparade WKM</tspan><tspan x="0" y="244" fill="#222222" font-family="'MyriadPro-Regular'" font-size="30">Menschen in der Pfennigparade</tspan><tspan x="0" y="305" fill="#222222" font-family="'MyriadPro-Regular'" font-size="30">Kurzgeschichten</tspan></text>
</g>
<text transform="matrix(1 0 0 1 1494.1504 93.8921)" fill="#555555" font-family="'MyriadPro-Regular'" font-size="73.4712">x</text>
<text transform="matrix(1 0 0 1 142.8135 94.4805)"><tspan x="0" y="0" fill="#222222" font-family="'DINAlternate-Bold'" font-size="72">WE</tspan><tspan x="96.335" y="0" fill="#D43900" font-family="'DINAlternate-Bold'" font-size="72">.</tspan><tspan x="111.237" y="0" fill="#222222" font-family="'DINAlternate-Bold'" font-size="72">ZET</tspan></text>
</svg>
